<?xml version="1.0" standalone="no"?>
<!DOCTYPE svg PUBLIC "-//W3C//DTD SVG 20010904//EN"
 "http://www.w3.org/TR/2001/REC-SVG-20010904/DTD/svg10.dtd">
<svg version="1.0" xmlns="http://www.w3.org/2000/svg"
 width="80" height="80" viewBox="0 0 1280.000000 1280.000000"
 preserveAspectRatio="xMidYMid meet">
 <circle cx="50%" cy="50%" r="50%" stroke="black" stroke-width="3" fill="#6ac045" />

<g transform="translate(150.00000,1100.000000) scale(0.07,-0.07)"
fill="#fff" stroke="none">

<path d="M6025 10719 c-750 -56 -1362 -298 -1817 -717 l-86 -80 -79 -6 c-303
-23 -508 -54 -725 -110 -579 -148 -1123 -418 -1578 -780 -161 -129 -440 -407
-562 -561 -342 -431 -567 -886 -708 -1429 -210 -808 -179 -1708 85 -2486 126
-371 266 -654 491 -996 295 -448 657 -813 1104 -1111 499 -333 998 -514 1610
-584 138 -16 590 -16 755 0 738 71 1322 287 1994 735 79 53 148 93 153 90 6
-4 65 -45 131 -92 484 -340 1007 -618 1402 -745 247 -79 513 -119 805 -118
368 0 653 61 928 199 192 97 327 197 482 359 421 439 650 1107 575 1676 -52
398 -242 667 -530 753 -81 24 -239 24 -320 0 -263 -78 -430 -327 -386 -576 29
-163 153 -330 296 -401 64 -31 77 -34 160 -34 111 1 180 22 318 100 106 60
140 66 181 34 132 -104 78 -374 -141 -702 -250 -376 -726 -616 -1259 -634
-255 -9 -483 16 -934 102 -289 55 -474 104 -710 190 -210 76 -620 241 -633
254 -6 6 24 48 74 108 504 596 786 1280 1060 2577 44 208 56 250 74 262 26 17
297 86 425 109 236 41 474 28 603 -33 120 -56 168 -116 217 -274 34 -108 72
-167 123 -191 43 -21 67 -21 115 -2 47 20 79 50 104 99 30 58 22 180 -16 255
-72 141 -260 277 -474 345 -252 79 -467 78 -897 -5 -82 -16 -153 -25 -157 -21
-13 13 144 768 238 1147 150 598 296 968 515 1302 100 150 262 351 305 376 9
5 70 -6 152 -27 847 -217 1416 -230 1881 -41 179 73 314 166 476 329 216 217
354 474 401 746 13 74 15 130 10 250 -7 186 -13 217 -49 244 l-27 20 -86 -29
c-48 -17 -92 -34 -100 -40 -11 -8 -9 -24 7 -90 16 -63 19 -100 15 -175 -18
-331 -202 -490 -636 -551 -121 -17 -554 -18 -710 -1 -609 66 -1134 200 -2180
556 -555 190 -696 233 -950 295 -274 67 -520 107 -795 131 -139 11 -560 11
-720 -1z m-64 -374 c460 -54 908 -206 1822 -619 497 -225 689 -305 1022 -426
196 -72 229 -86 223 -100 -2 -3 -59 -56 -128 -116 -259 -226 -412 -398 -585
-659 -205 -309 -357 -612 -542 -1085 -63 -160 -304 -865 -377 -1102 l-36 -117
-46 -7 c-56 -8 -199 3 -226 17 -15 8 -18 17 -13 37 20 79 57 272 72 382 25
181 25 652 0 840 -46 340 -122 618 -237 868 -275 599 -695 1043 -1265 1338
-316 164 -616 256 -980 300 -77 9 -144 20 -148 24 -13 11 25 43 148 126 367
245 835 353 1296 299z m-1326 -680 c290 -41 560 -127 850 -270 430 -212 743
-485 998 -870 147 -222 260 -481 332 -761 65 -251 79 -380 80 -729 0 -280 -2
-322 -23 -435 -29 -161 -81 -350 -98 -357 -40 -15 -175 107 -221 201 l-27 56
23 37 c101 168 126 348 66 480 -33 73 -85 106 -169 107 -52 1 -69 -3 -105 -27
-49 -33 -85 -99 -102 -193 -11 -57 -6 -277 7 -352 6 -31 2 -38 -52 -89 -283
-265 -620 -387 -1024 -370 -442 19 -805 201 -1097 550 -247 296 -396 631 -460
1037 -26 165 -26 579 0 735 69 410 221 760 478 1100 37 50 83 107 102 128 l35
37 153 0 c85 0 199 -7 254 -15z m-785 -35 c0 -5 -27 -51 -60 -101 -226 -345
-365 -702 -427 -1099 -25 -162 -25 -575 0 -745 113 -764 509 -1360 1102 -1655
241 -120 431 -168 700 -177 438 -15 806 105 1108 362 36 30 72 55 80 55 7 0
28 -20 46 -45 41 -57 129 -131 221 -186 38 -23 70 -45 70 -49 0 -9 -46 -120
-87 -210 -126 -275 -361 -607 -597 -843 -220 -219 -426 -367 -716 -511 -302
-150 -557 -223 -866 -248 -167 -13 -413 0 -534 27 -36 8 -109 18 -162 21 -79
6 -106 4 -142 -10 -86 -33 -127 -110 -112 -210 21 -135 117 -168 378 -129 366
55 806 -13 1191 -183 281 -124 987 -532 987 -570 0 -24 -313 -330 -445 -436
-393 -314 -772 -488 -1230 -565 -169 -28 -597 -25 -794 5 -441 69 -845 229
-1238 491 -221 148 -360 259 -532 426 -326 317 -572 660 -783 1089 -186 382
-294 743 -354 1191 -24 174 -30 645 -10 845 93 972 533 1877 1221 2510 418
386 908 680 1387 835 252 82 598 148 598 115z m3323 -3766 c83 -6 97 -10 97
-24 0 -48 -295 -881 -440 -1245 -156 -391 -556 -1184 -601 -1193 -8 -1 -209
94 -445 212 -405 201 -548 269 -738 348 -44 18 -79 37 -78 43 0 5 101 44 224
85 317 108 467 178 680 319 309 204 591 474 780 746 79 114 205 363 273 540
75 197 70 188 113 181 20 -3 81 -9 135 -12z"/>
</g>
</svg>
