<svg width="80" height="80" viewBox="0 0 80 80" fill="none" xmlns="http://www.w3.org/2000/svg">
<path d="M80 40C80 62.0914 62.0914 80 40 80C17.9086 80 0 62.0914 0 40C0 17.9086 17.9086 0 40 0C62.0914 0 80 17.9086 80 40Z" fill="#6AC045"/>
<path d="M40.42 68.694C37.9047 68.694 35.6203 68.3603 33.567 67.693C31.565 67.0257 29.871 66.1017 28.485 64.921C27.099 63.689 26.021 62.2517 25.251 60.609C24.5323 58.915 24.173 57.067 24.173 55.065C24.173 52.909 24.5837 50.9327 25.405 49.136C26.2777 47.288 27.561 45.594 29.255 44.054C30.949 42.4627 33.0537 41.051 35.569 39.819C33.9777 38.895 32.7713 37.6117 31.95 35.969C31.1287 34.3263 30.7437 32.3757 30.795 30.117C30.8463 28.423 31.334 26.7547 32.258 25.112C33.2333 23.4693 34.4653 22.0063 35.954 20.723C37.494 19.4397 39.0853 18.567 40.728 18.105L45.117 18.721C42.2937 20.6203 40.3687 22.6223 39.342 24.727C38.3667 26.7803 37.8533 28.6797 37.802 30.425C37.7507 31.9137 37.9047 33.2997 38.264 34.583C38.6747 35.815 39.2907 36.97 40.112 38.048C40.42 38.048 40.959 38.048 41.729 38.048C42.499 38.048 43.3203 38.0737 44.193 38.125C45.117 38.125 45.887 38.125 46.503 38.125C47.1703 38.125 48.2227 38.125 49.66 38.125C51.0973 38.0737 52.432 37.971 53.664 37.817C53.7667 38.0223 53.8437 38.2533 53.895 38.51C53.9463 38.7153 53.972 38.972 53.972 39.28C53.972 40.4093 53.4843 41.3847 52.509 42.206C51.585 42.976 50.2247 43.361 48.428 43.361C47.1447 43.361 45.9127 43.284 44.732 43.13C43.5513 42.9247 42.0883 42.591 40.343 42.129C37.571 43.7717 35.492 45.5683 34.106 47.519C32.7713 49.4697 32.104 51.6 32.104 53.91C32.104 57.0413 33.105 59.3257 35.107 60.763C37.1603 62.2003 39.5473 62.919 42.268 62.919C44.5267 62.919 46.734 62.457 48.89 61.533C51.0973 60.609 52.971 59.454 54.511 58.068C54.8703 58.3247 55.127 58.6583 55.281 59.069C55.435 59.4797 55.512 59.916 55.512 60.378C55.512 61.456 55.1013 62.4827 54.28 63.458C53.51 64.4333 52.432 65.3317 51.046 66.153C49.66 66.923 48.043 67.539 46.195 68.001C44.3983 68.463 42.4733 68.694 40.42 68.694ZM17.32 36.431C15.934 36.431 14.7277 36.0973 13.701 35.43C12.6743 34.7113 11.8787 33.7103 11.314 32.427C10.7493 31.1437 10.467 29.6293 10.467 27.884C10.467 26.036 10.8007 24.2137 11.468 22.417C12.1353 20.6203 13.162 19.0033 14.548 17.566C15.9853 16.1287 17.782 14.9993 19.938 14.178C22.1453 13.3053 24.7377 12.869 27.715 12.869C30.487 12.869 33.2333 13.0743 35.954 13.485C38.6747 13.8957 41.344 14.332 43.962 14.794C46.6313 15.2047 49.2237 15.41 51.739 15.41C53.741 15.41 55.5377 15.2817 57.129 15.025C58.7203 14.7683 60.2347 13.9983 61.672 12.715C61.98 13.1257 62.2367 13.6133 62.442 14.178C62.6473 14.7427 62.7243 15.3073 62.673 15.872C62.673 16.8473 62.4163 17.797 61.903 18.721C61.3897 19.645 60.5683 20.415 59.439 21.031C58.3097 21.647 56.821 21.955 54.973 21.955C53.7923 21.955 52.432 21.8267 50.892 21.57C49.4033 21.3133 47.7093 20.9283 45.81 20.415C43.962 19.9017 41.883 19.26 39.573 18.49L39.496 18.259C37.9047 17.6943 36.2877 17.2067 34.645 16.796C33.0023 16.3853 31.3853 16.18 29.794 16.18C26.0467 16.18 23.1463 17.181 21.093 19.183C19.091 21.185 18.09 24.0083 18.09 27.653C18.09 29.0903 18.2953 30.502 18.706 31.888C19.1167 33.274 19.6813 34.5573 20.4 35.738C19.9893 35.9433 19.553 36.123 19.091 36.277C18.629 36.3797 18.0387 36.431 17.32 36.431Z" fill="white"/>
</svg>
